2014022_C4_04_grf
version=1
nRows=34
nColumns=19
inDegrees=no
endheader
time	ground_force_1_vx	ground_force_1_vy	ground_force_1_vz	ground_force_1_px	ground_force_1_py	ground_force_1_pz	ground_force_1_mx	ground_force_1_my	ground_force_1_mz	ground_force_2_vx	ground_force_2_vy	ground_force_2_vz	ground_force_2_px	ground_force_2_py	ground_force_2_pz	ground_force_2_mx	ground_force_2_my	ground_force_2_mz
      0.43200000	      0.00000000	      0.00000000	      0.00000000	      0.00000000	      0.00000000	      0.00000000	      0.00000000	      0.00000000	      0.00000000	    -13.44337501	    509.75476205	      6.08438998	     -0.70474010	     -0.00200000	      0.23908053	      0.00000000	     -0.76643935	     -0.00000000
      0.43300000	      0.00000000	      0.00000000	      0.00000000	      0.00000000	      0.00000000	      0.00000000	      0.00000000	      0.00000000	      0.00000000	    -13.23455246	    510.85985452	      6.14165887	     -0.70430867	     -0.00200000	      0.23906852	      0.00000000	     -0.77285020	      0.00000000
      0.43400000	      0.00000000	      0.00000000	      0.00000000	      0.00000000	      0.00000000	      0.00000000	      0.00000000	      0.00000000	      0.00000000	    -13.01954500	    511.97918504	      6.20250590	     -0.70388076	     -0.00200000	      0.23905570	      0.00000000	     -0.77877121	     -0.00000000
      0.43500000	      0.00000000	      0.00000000	      0.00000000	      0.00000000	      0.00000000	      0.00000000	      0.00000000	      0.00000000	      0.00000000	    -12.79648254	    513.11632618	      6.26781862	     -0.70345744	     -0.00200000	      0.23904181	      0.00000000	     -0.78406946	      0.00000000
      0.43600000	      0.00000000	      0.00000000	      0.00000000	      0.00000000	      0.00000000	      0.00000000	      0.00000000	      0.00000000	      0.00000000	    -12.56672665	    514.26775753	      6.33669496	     -0.70303800	     -0.00200000	      0.23902705	      0.00000000	     -0.78886220	     -0.00000000
      0.43700000	      0.00000000	      0.00000000	      0.00000000	      0.00000000	      0.00000000	      0.00000000	      0.00000000	      0.00000000	      0.00000000	    -12.32830388	    515.43707773	      6.41001090	     -0.70262362	     -0.00200000	      0.23901113	      0.00000000	     -0.79301599	      0.00000000
      0.43800000	      0.00000000	      0.00000000	      0.00000000	      0.00000000	      0.00000000	      0.00000000	      0.00000000	      0.00000000	      0.00000000	    -12.08271552	    516.62074029	      6.48686290	     -0.70221347	     -0.00200000	      0.23899428	      0.00000000	     -0.79665449	     -0.00000000
      0.43900000	      0.00000000	      0.00000000	      0.00000000	      0.00000000	      0.00000000	      0.00000000	      0.00000000	      0.00000000	      0.00000000	    -11.82790007	    517.82221347	      6.56811148	     -0.70180881	     -0.00200000	      0.23897621	      0.00000000	     -0.79964366	      0.00000000
      0.44000000	      0.00000000	      0.00000000	      0.00000000	      0.00000000	      0.00000000	      0.00000000	      0.00000000	      0.00000000	      0.00000000	    -11.56549994	    519.03792471	      6.65284991	     -0.70140872	     -0.00200000	      0.23895716	      0.00000000	     -0.80211089	     -0.00000000
      0.44100000	      0.00000000	      0.00000000	      0.00000000	      0.00000000	      0.00000000	      0.00000000	      0.00000000	      0.00000000	      0.00000000	    -11.29339170	    520.27136832	      6.74189143	     -0.70101453	     -0.00200000	      0.23893685	      0.00000000	     -0.80392578	      0.00000000
      0.44200000	      0.00000000	      0.00000000	      0.00000000	      0.00000000	      0.00000000	      0.00000000	      0.00000000	      0.00000000	      0.00000000	    -11.01335604	    521.51889354	      6.83430955	     -0.70062520	     -0.00200000	      0.23891553	      0.00000000	     -0.80522152	     -0.00000000
      0.44300000	      0.00000000	      0.00000000	      0.00000000	      0.00000000	      0.00000000	      0.00000000	      0.00000000	      0.00000000	      0.00000000	    -10.72323741	    522.78404683	      6.93084486	     -0.70024215	     -0.00200000	      0.23889293	      0.00000000	     -0.80587638	      0.00000000
      0.44400000	      0.00000000	      0.00000000	      0.00000000	      0.00000000	      0.00000000	      0.00000000	      0.00000000	      0.00000000	      0.00000000	    -10.42492595	    524.06328171	      7.03057945	     -0.69986430	     -0.00200000	      0.23886932	      0.00000000	     -0.80602759	     -0.00000000
      0.44500000	      0.00000000	      0.00000000	      0.00000000	      0.00000000	      0.00000000	      0.00000000	      0.00000000	      0.00000000	      0.00000000	    -10.11623722	    525.36004037	      7.13418350	     -0.69949311	     -0.00200000	      0.23884444	      0.00000000	     -0.80556369	      0.00000000
      0.44600000	      0.00000000	      0.00000000	      0.00000000	      0.00000000	      0.00000000	      0.00000000	      0.00000000	      0.00000000	      0.00000000	     -9.79915261	    526.67088062	      7.24077299	     -0.69912744	     -0.00200000	      0.23881858	      0.00000000	     -0.80462111	     -0.00000000
      0.44700000	      0.00000000	      0.00000000	      0.00000000	      0.00000000	      0.00000000	      0.00000000	      0.00000000	      0.00000000	      0.00000000	     -9.47147701	    527.99914032	      7.35094920	     -0.69876884	     -0.00200000	      0.23879151	      0.00000000	     -0.80309787	      0.00000000
      0.44800000	      0.00000000	      0.00000000	      0.00000000	      0.00000000	      0.00000000	      0.00000000	      0.00000000	      0.00000000	      0.00000000	     -9.13526397	    529.34132516	      7.46386796	     -0.69841604	     -0.00200000	      0.23876351	     -0.00000000	     -0.80112562	      0.00000000
      0.44900000	      0.00000000	      0.00000000	      0.00000000	      0.00000000	      0.00000000	      0.00000000	      0.00000000	      0.00000000	      0.00000000	     -8.78832303	    530.70074692	      7.58004300	     -0.69807063	     -0.00200000	      0.23873438	     -0.00000000	     -0.79861393	      0.00000000
      0.45000000	      0.00000000	      0.00000000	      0.00000000	      0.00000000	      0.00000000	      0.00000000	      0.00000000	      0.00000000	      0.00000000	     -8.43277108	    532.07388520	      7.69867450	     -0.69773125	     -0.00200000	      0.23870438	      0.00000000	     -0.79569050	     -0.00000000
      0.45100000	      0.00000000	      0.00000000	      0.00000000	      0.00000000	      0.00000000	      0.00000000	      0.00000000	      0.00000000	      0.00000000	     -8.06644419	    533.46381709	      7.82018192	     -0.69739951	     -0.00200000	      0.23867335	      0.00000000	     -0.79227913	      0.00000000
      0.45200000	      0.00000000	      0.00000000	      0.00000000	      0.00000000	      0.00000000	      0.00000000	      0.00000000	      0.00000000	      0.00000000	     -7.69150956	    534.86704826	      7.94382319	     -0.69707395	     -0.00200000	      0.23864154	      0.00000000	     -0.78850159	      0.00000000
      0.45300000	      0.00000000	      0.00000000	      0.00000000	      0.00000000	      0.00000000	      0.00000000	      0.00000000	      0.00000000	      0.00000000	     -7.30585097	    536.28647327	      8.06991160	     -0.69675620	     -0.00200000	      0.23860880	      0.00000000	     -0.78429920	      0.00000000
      0.45400000	      0.00000000	      0.00000000	      0.00000000	      0.00000000	      0.00000000	      0.00000000	      0.00000000	      0.00000000	      0.00000000	     -6.91165589	    537.71867603	      8.19777399	     -0.69644475	     -0.00200000	      0.23857535	      0.00000000	     -0.77978449	      0.00000000
      0.45500000	      0.00000000	      0.00000000	      0.00000000	      0.00000000	      0.00000000	      0.00000000	      0.00000000	      0.00000000	      0.00000000	     -6.50685723	    539.16662931	      8.32761377	     -0.69614124	     -0.00200000	      0.23854108	      0.00000000	     -0.77491442	      0.00000000
      0.45600000	      0.00000000	      0.00000000	      0.00000000	      0.00000000	      0.00000000	      0.00000000	      0.00000000	      0.00000000	      0.00000000	     -6.09363336	    540.62689096	      8.45884159	     -0.69584414	     -0.00200000	      0.23850620	      0.00000000	     -0.76978802	      0.00000000
      0.45700000	      0.00000000	      0.00000000	      0.00000000	      0.00000000	      0.00000000	      0.00000000	      0.00000000	      0.00000000	      0.00000000	     -5.66995004	    542.10235551	      8.59156139	     -0.69555511	     -0.00200000	      0.23847061	      0.00000000	     -0.76437723	      0.00000000
      0.45800000	      0.00000000	      0.00000000	      0.00000000	      0.00000000	      0.00000000	      0.00000000	      0.00000000	      0.00000000	      0.00000000	     -5.23795467	    543.58971119	      8.72528180	     -0.69527255	     -0.00200000	      0.23843450	      0.00000000	     -0.75876637	      0.00000000
      0.45900000	      0.00000000	      0.00000000	      0.00000000	      0.00000000	      0.00000000	      0.00000000	      0.00000000	      0.00000000	      0.00000000	     -4.79564513	    545.09174824	      8.86002108	     -0.69499814	     -0.00200000	      0.23839781	      0.00000000	     -0.75293717	      0.00000000
      0.46000000	      0.00000000	      0.00000000	      0.00000000	      0.00000000	      0.00000000	      0.00000000	      0.00000000	      0.00000000	      0.00000000	     -4.34515066	    546.60531133	      8.99539590	     -0.69473026	     -0.00200000	      0.23836070	     -0.00000000	     -0.74695846	      0.00000000
      0.46100000	      0.00000000	      0.00000000	      0.00000000	      0.00000000	      0.00000000	      0.00000000	      0.00000000	      0.00000000	      0.00000000	     -3.88451479	    548.13285172	      9.13135521	     -0.69447055	     -0.00200000	      0.23832315	     -0.00000000	     -0.74082456	      0.00000000
      0.46200000	      0.00000000	      0.00000000	      0.00000000	      0.00000000	      0.00000000	      0.00000000	      0.00000000	      0.00000000	      0.00000000	     -3.41584068	    549.67139661	      9.26762223	     -0.69421737	     -0.00200000	      0.23828530	      0.00000000	     -0.73459298	      0.00000000
      0.46300000	      0.00000000	      0.00000000	      0.00000000	      0.00000000	      0.00000000	      0.00000000	      0.00000000	      0.00000000	      0.00000000	     -2.93721666	    551.22337118	      9.40407924	     -0.69397236	     -0.00200000	      0.23824713	      0.00000000	     -0.72827219	      0.00000000
      0.46400000	      0.00000000	      0.00000000	      0.00000000	      0.00000000	      0.00000000	      0.00000000	      0.00000000	      0.00000000	      0.00000000	     -2.45071412	    552.78567225	      9.54053923	     -0.69373382	     -0.00200000	      0.23820874	      0.00000000	     -0.72190607	      0.00000000
      0.46500000	      0.00000000	      0.00000000	      0.00000000	      0.00000000	      0.00000000	      0.00000000	      0.00000000	      0.00000000	      0.00000000	     -1.95447763	    554.36062068	      9.67682675	     -0.69350334	     -0.00200000	      0.23817013	      0.00000000	     -0.71551799	      0.00000000
